<svg width="1000" height="1003" viewBox="0 0 1000 1003" fill="none" xmlns="http://www.w3.org/2000/svg">
<g clip-path="url(#clip0_63_37)">
<path d="M500.02 1001.74C770.052 1001.74 988.957 777.644 988.957 501.203C988.957 224.761 770.052 0.660645 500.02 0.660645C229.988 0.660645 11.083 224.761 11.083 501.203C11.083 777.644 229.988 1001.74 500.02 1001.74Z" fill="#2F3D46"/>
<path d="M500.02 2.54834C223.909 2.54834 0 226.377 0 502.528C0 723.465 143.276 910.873 341.927 976.969C366.904 981.587 376.099 966.127 376.099 952.916C376.099 940.989 375.617 901.597 375.417 859.834C236.317 890.072 206.963 800.846 206.963 800.846C184.235 743.061 151.428 727.682 151.428 727.682C106.051 696.641 154.841 697.284 154.841 697.284C205.036 700.818 231.498 748.804 231.498 748.804C276.111 825.26 348.472 803.135 376.983 790.365C381.48 758.04 394.41 735.994 408.746 723.506C297.675 710.857 180.942 667.97 180.942 476.387C180.942 421.815 200.458 377.202 232.462 342.186C227.282 329.617 210.175 278.78 237.321 209.913C237.321 209.913 279.324 196.461 374.854 261.152C414.729 250.069 457.495 244.527 500.02 244.326C542.505 244.527 585.311 250.069 625.266 261.152C720.716 196.461 762.639 209.913 762.639 209.913C789.865 278.78 772.718 329.658 767.538 342.226C799.582 377.242 818.978 421.855 818.978 476.427C818.978 668.452 702.004 710.776 590.652 723.144C608.601 738.644 624.583 769.082 624.583 815.743C624.583 882.643 624.021 936.492 624.021 952.956C624.021 966.247 633.016 981.868 658.354 976.929C856.925 910.752 1000 723.385 1000 502.528C1000 226.377 776.131 2.54834 500.02 2.54834Z" fill="white"/>
</g>
<defs>
<clipPath id="clip0_63_37">
<rect width="1000" height="1002.41" fill="white"/>
</clipPath>
</defs>
</svg>
